<?xml version="1.0" encoding="UTF-8" standalone="no"?><!DOCTYPE svg PUBLIC "-//W3C//DTD SVG 1.1//EN" "http://www.w3.org/Graphics/SVG/1.1/DTD/svg11.dtd"><svg width="100%" height="100%" viewBox="0 0 72 44" version="1.1" xmlns="http://www.w3.org/2000/svg" xmlns:xlink="http://www.w3.org/1999/xlink" xml:space="preserve" xmlns:serif="http://www.serif.com/" style="fill-rule:evenodd;clip-rule:evenodd;stroke-linejoin:round;stroke-miterlimit:2;"><g><path d="M17.074,25.193l-7.919,-0l-0,14.393l-7.496,0l0,-36.706l18.004,0c2.574,0.05 4.553,0.365 5.94,0.946c1.386,0.581 2.56,1.436 3.523,2.565c0.797,0.93 1.428,1.959 1.893,3.088c0.465,1.129 0.697,2.416 0.697,3.86c0,1.743 -0.44,3.457 -1.32,5.142c-0.879,1.685 -2.332,2.877 -4.358,3.574c1.694,0.68 2.893,1.648 3.599,2.901c0.705,1.253 1.058,3.167 1.058,5.74l0,2.465c0,1.677 0.067,2.814 0.199,3.412c0.2,0.946 0.664,1.643 1.395,2.092l-0,0.921l-8.442,0c-0.232,-0.813 -0.398,-1.469 -0.498,-1.967c-0.199,-1.03 -0.307,-2.084 -0.324,-3.163l-0.05,-3.411c-0.033,-2.341 -0.46,-3.902 -1.282,-4.682c-0.822,-0.78 -2.362,-1.17 -4.619,-1.17Zm4.656,-6.674c1.528,-0.698 2.291,-2.076 2.291,-4.134c0,-2.225 -0.738,-3.719 -2.216,-4.483c-0.83,-0.431 -2.075,-0.647 -3.735,-0.647l-8.915,0l-0,9.861l8.691,0c1.726,0 3.021,-0.199 3.884,-0.597Z" style="fill:#171624;fill-rule:nonzero;"/><path d="M70.838,39.586l-9.862,0l-11.33,-16.037l-3.661,3.76l0,12.277l-7.545,0l-0,-36.706l7.545,0l0,15.116l14.17,-15.116l9.911,0l-15.041,15.116l15.813,21.59Z" style="fill:#171624;fill-rule:nonzero;"/></g></svg>