<svg width="100%" height="100%" viewBox="0 0 128 128" xmlns="http://www.w3.org/2000/svg">
    <path d="M4.996,66.411l0,-60.844l31.336,0c5.81,0 10.251,0.498 13.323,1.494c3.071,0.996 5.547,2.843 7.429,5.541c1.881,2.697 2.822,5.983 2.822,9.857c0,3.375 -0.719,6.288 -2.158,8.736c-1.439,2.449 -3.417,4.434 -5.935,5.956c-1.605,0.969 -3.805,1.771 -6.599,2.407c2.241,0.748 3.873,1.495 4.897,2.242c0.692,0.498 1.695,1.563 3.009,3.195c1.314,1.633 2.193,2.892 2.636,3.777l9.089,17.639l-21.25,0l-10.044,-18.593c-1.273,-2.407 -2.407,-3.971 -3.403,-4.69c-1.356,-0.941 -2.892,-1.411 -4.607,-1.411l-1.66,0l0,24.694l-18.885,0Zm18.885,-36.191l7.927,0c0.858,0 2.518,-0.277 4.98,-0.83c1.245,-0.249 2.262,-0.885 3.051,-1.909c0.788,-1.024 1.183,-2.2 1.183,-3.528c-0,-1.965 -0.623,-3.473 -1.868,-4.524c-1.245,-1.051 -3.583,-1.577 -7.014,-1.577l-8.259,0l0,12.368Z" style="fill-rule:nonzero;"/>
    <path d="M59.83,64l18.802,0l0,22.993l19.714,-22.993l24.985,0l-22.163,22.952l23.159,37.893l-23.159,0l-12.824,-25.027l-9.712,10.168l0,14.859l-18.802,0l0,-60.845Z" style="fill-rule:nonzero;"/>
</svg>
